<svg width="220" height="220" viewBox="0 0 220 220" fill="none" xmlns="http://www.w3.org/2000/svg">
<path fill-rule="evenodd" clip-rule="evenodd" d="M166.191 25.9266C149.558 14.816 130.003 8.88778 110 8.89168C83.1956 8.92828 57.4996 19.5925 38.546 38.546C19.5925 57.4996 8.92833 83.1956 8.89174 110C8.88783 130.003 14.816 149.558 25.9266 166.191C37.0372 182.825 52.8311 195.79 71.3106 203.446C89.7901 211.103 110.125 213.107 129.744 209.206C149.363 205.304 167.384 195.672 181.528 181.528C195.672 167.384 205.304 149.363 209.206 129.744C213.107 110.125 211.103 89.7901 203.446 71.3106C195.79 52.831 182.825 37.0372 166.191 25.9266ZM48.8873 18.5383C66.9767 6.45139 88.2441 0 110 0C139.174 0 167.153 11.5893 187.782 32.2183C208.411 52.8473 220 80.8262 220 110C220 131.756 213.549 153.023 201.462 171.113C189.375 189.202 172.195 203.301 152.095 211.627C131.995 219.952 109.878 222.131 88.5401 217.886C67.2022 213.642 47.602 203.166 32.2183 187.782C16.8345 172.398 6.35805 152.798 2.11367 131.46C-2.1307 110.122 0.0476617 88.0047 8.37331 67.9048C16.6989 47.805 30.7979 30.6253 48.8873 18.5383ZM76.5279 49.9119L167.954 110L76.5279 170.088C76.5279 139.675 76.5479 129.255 76.5632 121.256C76.5853 109.781 76.5977 103.288 76.5279 49.9119Z" fill="white"/>
</svg>
